<svg width="191" height="36" viewBox="0 0 191 36" fill="none" xmlns="http://www.w3.org/2000/svg">
<path d="M168.331 5.90164V11.9719H163.989V19.4333C163.989 21.2459 165.549 21.4145 168.331 21.2459V26.9789C160.069 27.822 157.666 25.3349 157.666 19.4333V11.9719H154.294V5.90164H157.666V1.89696L163.989 0V5.90164H168.331Z" fill="#363399"/>
<path fill-rule="evenodd" clip-rule="evenodd" d="M12.6042 5.31148C9.77986 5.31148 7.71428 6.28103 6.32318 7.8829V5.90164H0V35.4098H6.32318V24.9977C7.71428 26.5995 9.77986 27.5691 12.6042 27.5691C18.1265 27.5691 22.6792 22.7213 22.6792 16.4403C22.6792 10.1593 18.1265 5.31148 12.6042 5.31148ZM11.3396 21.5831C8.43091 21.5831 6.32318 19.6019 6.32318 16.4403C6.32318 13.2787 8.43091 11.2974 11.3396 11.2974C14.2482 11.2974 16.356 13.2787 16.356 16.4403C16.356 19.6019 14.2482 21.5831 11.3396 21.5831Z" fill="#363399"/>
<path d="M32.5875 9.65339V5.90164H26.2643V26.9789H32.5875V17.452C32.5875 13.2787 36.2971 12.2248 38.9106 12.6464V5.48009C36.2549 5.48009 33.4305 6.82904 32.5875 9.65339Z" fill="#363399"/>
<path fill-rule="evenodd" clip-rule="evenodd" d="M56.551 7.8829V5.90164H62.8742V26.9789H56.551V24.9977C55.1599 26.5995 53.0943 27.5691 50.27 27.5691C44.7477 27.5691 40.195 22.7213 40.195 16.4403C40.195 10.1593 44.7477 5.31148 50.27 5.31148C53.0943 5.31148 55.1599 6.28103 56.551 7.8829ZM46.5182 16.4403C46.5182 19.6019 48.6259 21.5831 51.5346 21.5831C54.4433 21.5831 56.551 19.6019 56.551 16.4403C56.551 13.2787 54.4433 11.2974 51.5346 11.2974C48.6259 11.2974 46.5182 13.2787 46.5182 16.4403Z" fill="#363399"/>
<path fill-rule="evenodd" clip-rule="evenodd" d="M82.9839 5.90164V8.05152C81.5928 6.32319 79.5694 5.31148 76.8293 5.31148C70.8434 5.31148 66.4593 10.2014 66.4593 16.0187C66.4593 21.8361 70.8434 26.726 76.8293 26.726C79.5694 26.726 81.5928 25.7143 82.9839 23.9859V25.9251C82.9839 28.918 81.1712 30.4356 78.2204 30.4356C75.4382 30.4356 74.2157 29.2553 73.4148 27.7799L68.019 30.8993C69.9581 34.356 73.6256 36 78.0096 36C83.6162 36 89.1384 33.007 89.1384 25.9251V5.90164H82.9839ZM77.8832 20.9087C74.8902 20.9087 72.7825 18.9274 72.7825 16.0187C72.7825 13.1101 74.8902 11.1288 77.8832 11.1288C80.8762 11.1288 82.9839 13.1101 82.9839 16.0187C82.9839 18.9274 80.8762 20.9087 77.8832 20.9087Z" fill="#363399"/>
<path d="M171.912 26.9789H178.235V5.90164H171.912V26.9789Z" fill="#363399"/>
<path d="M111.272 8.09368C112.452 6.40749 114.391 5.31148 117.384 5.31148C122.232 5.31148 125.393 8.76815 125.393 14.0375V26.9789H119.07V14.5855C119.07 12.4778 118.058 11.1288 116.035 11.1288C113.927 11.1288 112.747 12.6042 112.747 15.0913V26.9789H106.424V14.5855C106.424 12.4778 105.412 11.1288 103.389 11.1288C101.281 11.1288 100.101 12.6042 100.101 15.0913V26.9789H93.7774V5.90164H100.101V7.84075C101.07 6.40749 102.925 5.31148 105.749 5.31148C108.236 5.31148 110.091 6.32319 111.272 8.09368Z" fill="#363399"/>
<path fill-rule="evenodd" clip-rule="evenodd" d="M145.018 5.90164V7.8829C143.627 6.28103 141.561 5.31148 138.737 5.31148C133.215 5.31148 128.662 10.1593 128.662 16.4403C128.662 22.7213 133.215 27.5691 138.737 27.5691C141.561 27.5691 143.627 26.5995 145.018 24.9977V26.9789H151.341V5.90164H145.018ZM140.002 21.5831C137.093 21.5831 134.985 19.6019 134.985 16.4403C134.985 13.2787 137.093 11.2974 140.002 11.2974C142.91 11.2974 145.018 13.2787 145.018 16.4403C145.018 19.6019 142.91 21.5831 140.002 21.5831Z" fill="#363399"/>
<path d="M190.45 23.5644C190.45 25.7564 188.637 27.5691 186.445 27.5691C184.253 27.5691 182.44 25.7564 182.44 23.5644C182.44 21.3724 184.253 19.5597 186.445 19.5597C188.637 19.5597 190.45 21.3724 190.45 23.5644Z" fill="#363399"/>
</svg>
