<svg width="326" height="62" viewBox="0 0 326 62" fill="none" xmlns="http://www.w3.org/2000/svg">
<path d="M287.51 10.08V20.448H280.094V33.192C280.094 36.288 282.758 36.576 287.51 36.288V46.08C273.398 47.52 269.294 43.272 269.294 33.192V20.448H263.534V10.08H269.294V3.24L280.094 0V10.08H287.51Z" fill="white"/>
<path fill-rule="evenodd" clip-rule="evenodd" d="M21.528 9.072C16.704 9.072 13.176 10.728 10.8 13.464V10.08H0V60.48H10.8V42.696C13.176 45.432 16.704 47.088 21.528 47.088C30.96 47.088 38.736 38.808 38.736 28.08C38.736 17.352 30.96 9.072 21.528 9.072ZM19.368 36.864C14.4 36.864 10.8 33.48 10.8 28.08C10.8 22.68 14.4 19.296 19.368 19.296C24.336 19.296 27.936 22.68 27.936 28.08C27.936 33.48 24.336 36.864 19.368 36.864Z" fill="white"/>
<path d="M55.6594 16.488V10.08H44.8594V46.08H55.6594V29.808C55.6594 22.68 61.9954 20.88 66.4594 21.6V9.36C61.9234 9.36 57.0994 11.664 55.6594 16.488Z" fill="white"/>
<path fill-rule="evenodd" clip-rule="evenodd" d="M96.5891 13.464V10.08H107.389V46.08H96.5891V42.696C94.2131 45.432 90.6851 47.088 85.8611 47.088C76.4291 47.088 68.6531 38.808 68.6531 28.08C68.6531 17.352 76.4291 9.072 85.8611 9.072C90.6851 9.072 94.2131 10.728 96.5891 13.464ZM79.4531 28.08C79.4531 33.48 83.0531 36.864 88.0211 36.864C92.9891 36.864 96.5891 33.48 96.5891 28.08C96.5891 22.68 92.9891 19.296 88.0211 19.296C83.0531 19.296 79.4531 22.68 79.4531 28.08Z" fill="white"/>
<path fill-rule="evenodd" clip-rule="evenodd" d="M141.736 10.08V13.752C139.361 10.8 135.904 9.072 131.225 9.072C121.001 9.072 113.513 17.424 113.513 27.36C113.513 37.296 121.001 45.648 131.225 45.648C135.904 45.648 139.361 43.92 141.736 40.968V44.28C141.736 49.392 138.64 51.984 133.6 51.984C128.848 51.984 126.76 49.968 125.392 47.448L116.176 52.776C119.488 58.68 125.752 61.488 133.24 61.488C142.816 61.488 152.248 56.376 152.248 44.28V10.08H141.736ZM133.024 35.712C127.912 35.712 124.313 32.328 124.313 27.36C124.313 22.392 127.912 19.008 133.024 19.008C138.136 19.008 141.736 22.392 141.736 27.36C141.736 32.328 138.136 35.712 133.024 35.712Z" fill="white"/>
<path d="M293.625 46.08H304.425V10.08H293.625V46.08Z" fill="white"/>
<path d="M190.052 13.824C192.068 10.944 195.38 9.072 200.492 9.072C208.772 9.072 214.172 14.976 214.172 23.976V46.08H203.372V24.912C203.372 21.312 201.644 19.008 198.188 19.008C194.588 19.008 192.572 21.528 192.572 25.776V46.08H181.772V24.912C181.772 21.312 180.044 19.008 176.588 19.008C172.988 19.008 170.972 21.528 170.972 25.776V46.08H160.172V10.08H170.972V13.392C172.628 10.944 175.796 9.072 180.62 9.072C184.868 9.072 188.036 10.8 190.052 13.824Z" fill="white"/>
<path fill-rule="evenodd" clip-rule="evenodd" d="M247.691 10.08V13.464C245.315 10.728 241.787 9.072 236.963 9.072C227.531 9.072 219.755 17.352 219.755 28.08C219.755 38.808 227.531 47.088 236.963 47.088C241.787 47.088 245.315 45.432 247.691 42.696V46.08H258.491V10.08H247.691ZM239.123 36.864C234.155 36.864 230.555 33.48 230.555 28.08C230.555 22.68 234.155 19.296 239.123 19.296C244.091 19.296 247.691 22.68 247.691 28.08C247.691 33.48 244.091 36.864 239.123 36.864Z" fill="white"/>
<path d="M325.288 40.248C325.288 43.992 322.192 47.088 318.448 47.088C314.704 47.088 311.608 43.992 311.608 40.248C311.608 36.504 314.704 33.408 318.448 33.408C322.192 33.408 325.288 36.504 325.288 40.248Z" fill="white"/>
</svg>
